<svg width="220" height="80" viewBox="0 0 220 80" fill="none" xmlns="http://www.w3.org/2000/svg">
<g clip-path="url(#clip0_3226_4933)">
<path opacity="0.8" d="M82.1101 21H154.441C156.88 21.0212 159.291 21.5229 161.536 22.4765C163.781 23.43 165.816 24.8168 167.524 26.5573C169.233 28.2979 170.582 30.3582 171.493 32.6204C172.405 34.8826 172.862 37.3023 172.838 39.7412C172.865 42.1819 172.41 44.6038 171.499 46.8683C170.589 49.1328 169.24 51.1955 167.531 52.9382C165.823 54.681 163.787 56.0695 161.541 57.0244C159.294 57.9792 156.882 58.4816 154.441 58.5028H82.1101C79.6711 58.4789 77.2608 57.9746 75.0169 57.0186C72.773 56.0625 70.7396 54.6736 69.0329 52.9311C67.3262 51.1887 65.9797 49.1269 65.0704 46.8637C64.1611 44.6004 63.7068 42.1802 63.7335 39.7412C63.7095 37.304 64.1657 34.8859 65.0762 32.625C65.9867 30.3642 67.3337 28.3048 69.0401 26.5645C70.7466 24.8241 72.7791 23.437 75.0216 22.4823C77.2642 21.5275 79.6729 21.0238 82.1101 21V21Z" fill="url(#paint0_linear_3226_4933)"/>
<path fill-rule="evenodd" clip-rule="evenodd" d="M50.1394 58.1178H58.8516V33.9264C58.8516 32.2342 58.5183 30.5586 57.8707 28.9952C57.2231 27.4318 56.274 26.0113 55.0774 24.8147C53.8808 23.6182 52.4603 22.669 50.8969 22.0214C49.3335 21.3738 47.6579 21.0405 45.9657 21.0405C44.2735 21.0405 42.5979 21.3738 41.0345 22.0214C39.601 22.6152 38.2876 23.4625 37.1568 24.5216C34.8452 22.5957 31.924 21.5315 28.896 21.5315C25.5616 21.5315 22.3566 22.822 19.9526 25.1326C17.5485 27.4433 16.1321 30.5946 16 33.9264V58.1178H24.7121V33.9264C24.7859 32.8671 25.2588 31.8752 26.0353 31.1509C26.8118 30.4265 27.8341 30.0237 28.896 30.0237C29.9579 30.0237 30.9802 30.4265 31.7567 31.1509C32.5332 31.8751 33.006 32.867 33.0798 33.9262C33.0798 33.9263 33.0798 33.9263 33.0798 33.9264V58.1178L41.792 58.1178L41.792 33.9264C41.792 33.9263 41.792 33.9262 41.792 33.9261C41.7921 32.8193 42.2318 31.7578 43.0144 30.9751C43.7972 30.1924 44.8588 29.7527 45.9657 29.7527C47.0727 29.7527 48.1343 30.1924 48.917 30.9751C49.6997 31.7579 50.1394 32.8195 50.1394 33.9264V58.1178ZM82.4757 58.4015C78.7785 58.4135 75.1609 57.3281 72.0809 55.2828C69.0009 53.2375 66.5971 50.3242 65.1739 46.9119C63.7507 43.4996 63.3721 39.7417 64.086 36.114C64.7999 32.4864 66.5743 29.1521 69.1843 26.5336C71.7944 23.915 75.1228 22.1298 78.7481 21.404C82.3734 20.6783 86.1326 21.0447 89.5495 22.4568C92.9665 23.8688 95.8876 26.2631 97.9429 29.3364C99.9982 32.4097 101.095 36.0238 101.095 39.721C101.085 44.6616 99.1216 49.3977 95.6337 52.8969C92.1459 56.3961 87.4162 58.3747 82.4757 58.4015ZM82.4757 29.7527C80.5042 29.7527 78.5769 30.3373 76.9376 31.4326C75.2983 32.528 74.0207 34.0848 73.2662 35.9063C72.5117 37.7278 72.3143 39.7321 72.6989 41.6657C73.0836 43.5994 74.0329 45.3756 75.427 46.7697C76.8211 48.1638 78.5973 49.1131 80.531 49.4978C82.4646 49.8824 84.4689 49.685 86.2904 48.9305C88.1119 48.176 89.6687 46.8984 90.7641 45.2591C91.8594 43.6198 92.444 41.6925 92.444 39.721C92.444 37.0772 91.3938 34.5418 89.5244 32.6723C87.6549 30.8029 85.1195 29.7527 82.4757 29.7527Z" fill="white"/>
<path fill-rule="evenodd" clip-rule="evenodd" d="M148.079 32.1434C148.079 33.3996 150.369 35.2636 153.773 35.4257C161.411 35.8512 167.469 41.0379 167.53 47.3391C167.516 48.6788 167.237 50.0026 166.708 51.2337C166.18 52.4649 165.412 53.5789 164.45 54.5114C161.633 57.0822 157.929 58.4619 154.117 58.3609H153.063C150.434 58.458 147.816 57.9766 145.393 56.9509C142.971 55.9251 140.803 54.3799 139.043 52.4245L145.121 46.3463C146.156 47.5606 147.473 48.5023 148.957 49.0887C150.44 49.6751 152.045 49.8883 153.631 49.7096C154.466 49.8008 155.312 49.726 156.118 49.4896C156.925 49.2532 157.677 48.8597 158.331 48.3318C158.476 48.2115 158.595 48.0635 158.682 47.8965C158.769 47.7295 158.822 47.5469 158.838 47.3593C158.818 46.1031 156.548 44.2189 153.124 44.0771C145.344 43.6718 139.266 38.4851 139.266 32.184C139.264 30.8164 139.544 29.4631 140.088 28.2083C140.631 26.9535 141.428 25.824 142.427 24.8901C145.27 22.305 148.999 20.9122 152.841 21C155.626 20.804 158.418 21.25 161.004 22.3039C163.589 23.3577 165.898 24.9911 167.753 27.0782L161.674 33.1565C160.65 31.9323 159.339 30.9807 157.858 30.3868C156.376 29.7928 154.771 29.575 153.185 29.7527C152.349 29.6569 151.503 29.7295 150.695 29.9661C149.888 30.2027 149.136 30.5986 148.485 31.1304C148.351 31.262 148.245 31.42 148.176 31.5944C148.106 31.7688 148.073 31.9557 148.079 32.1434ZM176.525 21.0405H203.979V29.7527H194.618V58.1178H185.906V29.7527H176.525V21.0405Z" fill="white"/>
</g>
<defs>
<linearGradient id="paint0_linear_3226_4933" x1="159.547" y1="39.7615" x2="76.2142" y2="39.7615" gradientUnits="userSpaceOnUse">
<stop stop-color="#6BFFE0"/>
<stop offset="1" stop-color="#38B7FF"/>
</linearGradient>
<clipPath id="clip0_3226_4933">
<rect width="188" height="37.523" fill="white" transform="translate(16 21)"/>
</clipPath>
</defs>
</svg>
