<svg width="301" height="40" viewBox="0 0 301 40" fill="none" xmlns="http://www.w3.org/2000/svg">
<g clip-path="url(#clip0_2889_44332)">
<path d="M71.2507 0H247.416C252.662 0.0581345 257.672 2.19608 261.343 5.94439C265.015 9.69271 267.049 14.745 266.999 19.9918C267.052 25.2401 265.018 30.2945 261.346 34.0446C257.674 37.7946 252.664 39.9337 247.416 39.9918H71.2507C66.0025 39.9337 60.992 37.7946 57.32 34.0446C53.6479 30.2945 51.6147 25.2401 51.6669 19.9918C51.6168 14.745 53.651 9.69271 57.3229 5.94439C60.9947 2.19608 66.0039 0.0581345 71.2507 0V0Z" fill="url(#paint0_linear_2889_44332)"/>
<path fill-rule="evenodd" clip-rule="evenodd" d="M28.2397 13.7821V39.592H18.9537V13.7821C18.9045 12.6324 18.4132 11.5461 17.5823 10.75C16.7514 9.95388 15.6451 9.50943 14.4943 9.50943C13.3435 9.50943 12.2373 9.95388 11.4063 10.75C10.5754 11.5461 10.0841 12.6324 10.0349 13.7821V39.592H0.748892V13.7821C0.704222 11.9489 1.02672 10.1252 1.69742 8.41845C2.36811 6.7117 3.37344 5.15636 4.65424 3.84397C5.93504 2.53158 7.46543 1.48866 9.15533 0.776592C10.8452 0.0645227 12.6605 -0.302307 14.4943 -0.302307C16.3281 -0.302307 18.1434 0.0645227 19.8333 0.776592C21.2098 1.35662 22.4805 2.15619 23.5967 3.1421C24.7129 2.15619 25.9836 1.35662 27.3601 0.776592C29.05 0.0645227 30.8653 -0.302307 32.6991 -0.302307C34.5329 -0.302307 36.3482 0.0645227 38.0381 0.776592C39.728 1.48866 41.2584 2.53158 42.5392 3.84397C43.82 5.15636 44.8253 6.7117 45.496 8.41845C46.1667 10.1252 46.4892 11.9489 46.4445 13.7821V39.592H37.1585V13.7821C37.1093 12.6324 36.618 11.5461 35.7871 10.75C34.9562 9.95388 33.8499 9.50943 32.6991 9.50943C31.5484 9.50943 30.4421 9.95388 29.6112 10.75C28.7803 11.5461 28.2889 12.6325 28.2397 13.7821ZM71.6424 39.8776C67.7006 39.8792 63.8469 38.7117 60.5688 36.5228C57.2906 34.3338 54.7353 31.2218 53.2261 27.5804C51.7169 23.9389 51.3216 19.9317 52.0902 16.0655C52.8588 12.1994 54.7568 8.64809 57.5441 5.86082C60.3313 3.07355 63.8827 1.17556 67.7488 0.406953C71.6149 -0.361657 75.6222 0.0336427 79.2636 1.54285C82.905 3.05205 86.0171 5.60736 88.206 8.88551C90.3949 12.1637 91.5624 16.0174 91.5608 19.9592C91.5522 25.2392 89.4509 30.3005 85.7173 34.0341C81.9838 37.7676 76.9225 39.869 71.6424 39.8776ZM71.6424 9.32679C69.5444 9.32679 67.4934 9.94893 65.749 11.1145C64.0045 12.2802 62.6449 13.9369 61.842 15.8752C61.0391 17.8136 60.829 19.9465 61.2383 22.0042C61.6477 24.0619 62.658 25.9521 64.1415 27.4356C65.625 28.9192 67.5152 29.9295 69.5729 30.3388C71.6307 30.7481 73.7636 30.538 75.7019 29.7351C77.6402 28.9323 79.297 27.5726 80.4626 25.8281C81.6282 24.0837 82.2503 22.0328 82.2503 19.9347C82.2503 17.1213 81.1327 14.4231 79.1433 12.4338C77.154 10.4444 74.4558 9.32679 71.6424 9.32679ZM300.251 0.0326267H270.957V9.32679H280.961V39.592H290.247V9.32679H300.251V0.0326267ZM246.591 15.3488V15.3896C254.833 15.8303 261.312 21.3708 261.369 28.0294C261.367 29.4907 261.065 30.9361 260.483 32.2764C259.9 33.6166 259.049 34.8233 257.983 35.8221C254.968 38.5466 251.021 40.0074 246.959 39.9021H246.885H245.824C239.623 39.9021 235.363 38.0824 230.884 33.5863L237.452 27.0583C239.998 29.6369 241.989 30.7548 246.526 30.6324C247.416 30.7304 248.317 30.6502 249.176 30.3967C250.034 30.1431 250.834 29.7212 251.528 29.1554C251.686 29.0295 251.815 28.8724 251.909 28.6941C252.003 28.5159 252.06 28.3201 252.075 28.1191C252.067 26.838 249.635 24.7817 245.996 24.6267C237.746 24.186 231.283 18.6454 231.218 11.9461C231.219 10.4834 231.52 9.03647 232.103 7.69472C232.685 6.35297 233.537 5.14492 234.604 4.14523C237.645 1.41542 241.617 -0.0447533 245.702 0.0652632V-1.62423e-05C252.467 -0.171375 256.971 1.57485 261.712 6.38921L255.135 12.9172C252.589 10.3386 250.622 9.21255 246.061 9.34311C245.171 9.24512 244.27 9.32524 243.412 9.57881C242.553 9.83238 241.753 10.2543 241.059 10.8201C240.902 10.946 240.772 11.103 240.678 11.2813C240.584 11.4596 240.527 11.6554 240.512 11.8564C240.52 13.1456 242.952 15.1938 246.591 15.3488Z" fill="black"/>
<path fill-rule="evenodd" clip-rule="evenodd" d="M106.959 16.6789V8.64951H113.487V16.6789H111.936V10.0122H108.534V16.6789H106.959ZM117.771 16.7931C117.326 16.8007 116.884 16.7174 116.473 16.5483C116.101 16.397 115.764 16.1691 115.486 15.8792C115.036 15.399 114.746 14.7908 114.657 14.1388C114.568 13.4868 114.683 12.8232 114.988 12.2399C115.241 11.7824 115.613 11.4018 116.065 11.1383C116.563 10.8592 117.126 10.7157 117.697 10.7221C118.27 10.707 118.836 10.8541 119.329 11.1464C119.803 11.3911 120.192 11.7719 120.447 12.2399L118.962 12.6968C118.841 12.4864 118.666 12.3118 118.456 12.1909C118.225 12.0668 117.966 12.0053 117.704 12.0124C117.442 12.0196 117.186 12.0952 116.963 12.2317C116.724 12.3795 116.532 12.5916 116.408 12.8437C116.273 13.1282 116.204 13.4389 116.204 13.7535C116.204 14.0682 116.273 14.3789 116.408 14.6634C116.542 14.9133 116.735 15.1263 116.971 15.2835C117.214 15.4386 117.498 15.5181 117.787 15.512C117.962 15.5113 118.136 15.481 118.301 15.4222C118.457 15.3607 118.603 15.2754 118.733 15.1693C118.853 15.0717 118.951 14.9492 119.019 14.8102L120.496 15.259C120.36 15.5697 120.16 15.8479 119.908 16.075C119.637 16.3143 119.325 16.5023 118.986 16.6299C118.595 16.7584 118.182 16.8137 117.771 16.7931ZM121.394 10.8201V16.6789H122.805L125.433 12.9172V16.6789H126.983V10.8119H125.596L122.911 14.6879V10.8201H121.394ZM129.301 10.8119L130.541 12.6479L130.631 12.8437L130.745 12.6479L131.977 10.8119H133.609L131.544 13.7332L133.642 16.6789H132.01L130.737 14.8511L130.631 14.6634L130.541 14.8511L129.276 16.6789H127.685L129.774 13.7658L127.717 10.8119H129.301ZM135.771 16.5483C136.183 16.7174 136.624 16.8007 137.069 16.7931C137.513 16.8007 137.955 16.7174 138.366 16.5483C138.736 16.4011 139.07 16.1756 139.345 15.8874C139.613 15.6051 139.821 15.2721 139.957 14.9082C140.099 14.5412 140.171 14.151 140.17 13.7576C140.17 13.3617 140.098 12.9691 139.957 12.5989C139.821 12.2349 139.613 11.902 139.345 11.6197C139.064 11.3394 138.731 11.1152 138.366 10.9588C137.532 10.6321 136.605 10.6321 135.771 10.9588C135.403 11.1091 135.069 11.3341 134.792 11.6197C134.525 11.9039 134.315 12.2362 134.172 12.5989C134.032 12.9691 133.96 13.3617 133.96 13.7576C133.958 14.151 134.03 14.5412 134.172 14.9082C134.315 15.2709 134.525 15.6032 134.792 15.8874C135.067 16.1756 135.401 16.4011 135.771 16.5483ZM135.722 14.6634C135.581 14.3829 135.511 14.0717 135.518 13.7576C135.491 13.4523 135.536 13.1448 135.649 12.86C135.777 12.6088 135.968 12.3952 136.204 12.2399C136.447 12.0852 136.731 12.0057 137.02 12.0114C137.309 12.0011 137.594 12.081 137.836 12.2399C138.079 12.3911 138.276 12.6055 138.407 12.86C138.546 13.1401 138.619 13.4488 138.619 13.7617C138.619 14.0746 138.546 14.3832 138.407 14.6634C138.276 14.9127 138.085 15.1258 137.852 15.2835C137.616 15.4303 137.343 15.508 137.065 15.508C136.786 15.508 136.514 15.4303 136.277 15.2835C136.042 15.1282 135.851 14.9146 135.722 14.6634ZM140.757 16.6789V15.3325C140.926 15.3292 141.091 15.2843 141.239 15.202C141.402 15.1005 141.534 14.9567 141.622 14.7858C141.751 14.5292 141.84 14.2538 141.883 13.9698C141.957 13.5244 142 13.0746 142.014 12.6234L142.087 10.8119H146.534V16.5973H145.017V12.1338H143.385V12.8029C143.369 13.4344 143.292 14.0629 143.156 14.6797C143.07 15.1032 142.901 15.5053 142.658 15.8629C142.448 16.1404 142.166 16.3549 141.842 16.4831C141.494 16.6094 141.127 16.6757 140.757 16.6789ZM149.349 16.5483C149.763 16.7186 150.208 16.8019 150.655 16.7931C151.106 16.8004 151.553 16.7143 151.969 16.5402C152.338 16.3909 152.672 16.1657 152.948 15.8792C153.215 15.5969 153.423 15.264 153.56 14.9C153.699 14.5325 153.768 14.1423 153.764 13.7495C153.767 13.3541 153.698 12.9614 153.56 12.5908C153.416 12.2202 153.197 11.8836 152.916 11.6026C152.635 11.3215 152.299 11.1023 151.928 10.9588C151.52 10.7894 151.081 10.7061 150.639 10.714C150.191 10.7052 149.747 10.7885 149.333 10.9588C148.966 11.1111 148.633 11.3359 148.354 11.6197C147.825 12.2057 147.534 12.9682 147.538 13.7576C147.535 14.1519 147.61 14.5428 147.758 14.9082C147.898 15.2705 148.106 15.6029 148.37 15.8874C148.647 16.1739 148.98 16.3991 149.349 16.5483ZM149.309 14.6634C149.167 14.383 149.097 14.0718 149.105 13.7576C149.099 13.4437 149.169 13.133 149.309 12.8519C149.434 12.5989 149.626 12.3846 149.864 12.2317C150.107 12.0761 150.391 11.9966 150.68 12.0032C150.955 11.9987 151.226 12.0785 151.455 12.2317C151.696 12.3825 151.891 12.5972 152.018 12.8519C152.157 13.132 152.23 13.4406 152.23 13.7535C152.23 14.0664 152.157 14.3751 152.018 14.6552C151.887 14.9074 151.693 15.1212 151.455 15.2754C151.224 15.4255 150.955 15.5049 150.68 15.5039C150.392 15.5134 150.107 15.4367 149.864 15.2835C149.626 15.1306 149.434 14.9163 149.309 14.6634ZM154.768 16.6789V10.8119H158.693V12.1338H156.285V16.6789H154.768ZM159.566 10.82V16.6789H160.977L163.605 12.9171V16.6952H165.114V10.8282H163.735L161.075 14.6878V10.82H159.566ZM109.529 30.3631C109.085 30.3687 108.645 30.2884 108.232 30.1265C107.862 29.9742 107.529 29.7463 107.252 29.4573C106.986 29.1762 106.775 28.8466 106.632 28.4863C106.349 27.7398 106.349 26.9154 106.632 26.1689C106.773 25.8075 106.984 25.4776 107.252 25.1979C107.529 24.9089 107.862 24.681 108.232 24.5287C109.068 24.2129 109.99 24.2129 110.826 24.5287C111.194 24.685 111.527 24.9124 111.806 25.1979C112.074 25.4759 112.283 25.8065 112.418 26.1689C112.701 26.9154 112.701 27.7398 112.418 28.4863C112.281 28.8478 112.073 29.178 111.806 29.4573C111.532 29.7498 111.198 29.9782 110.826 30.1265C110.413 30.2884 109.973 30.3687 109.529 30.3631ZM107.979 27.3358C107.972 27.6472 108.042 27.9555 108.183 28.2334C108.306 28.4877 108.498 28.7025 108.737 28.8535C108.982 29.0058 109.266 29.0824 109.553 29.0738C109.843 29.0841 110.128 29.0042 110.369 28.8453C110.605 28.69 110.796 28.4764 110.924 28.2252C111.064 27.9451 111.136 27.6364 111.136 27.3235C111.136 27.0106 111.064 26.702 110.924 26.4218C110.798 26.1693 110.606 25.9552 110.369 25.8017C110.125 25.649 109.841 25.5723 109.553 25.5814C109.264 25.5716 108.979 25.6514 108.737 25.8098C108.5 25.9631 108.309 26.1773 108.183 26.43C108.041 26.7104 107.971 27.0216 107.979 27.3358ZM113.65 24.3818V30.2488H115.151V27.8743H117.55V30.2488H119.068V24.3818H117.558V26.6095H115.159V24.3818H113.65ZM120.039 30.2488V28.9024C120.208 28.8991 120.373 28.8543 120.52 28.7719C120.682 28.6715 120.814 28.5309 120.904 28.3639C121.031 28.1064 121.119 27.8314 121.165 27.5479C121.234 27.102 121.278 26.6524 121.296 26.2015L121.369 24.39H125.816V30.1917H124.298V25.7038H122.707V26.3729C122.692 27.0044 122.615 27.6329 122.479 28.2497C122.39 28.6721 122.221 29.0737 121.981 29.4328C121.773 29.7125 121.49 29.9275 121.165 30.053C120.804 30.184 120.423 30.2503 120.039 30.2488ZM127.114 27.5561C126.897 27.8452 126.782 28.1983 126.787 28.5597C126.787 28.8865 126.881 29.2064 127.057 29.4818C127.235 29.7659 127.49 29.9948 127.791 30.1428C128.118 30.3031 128.479 30.3841 128.844 30.3794C129.253 30.377 129.657 30.2851 130.027 30.1101C130.409 29.9227 130.737 29.6421 130.981 29.2941L131.022 29.6042C131.054 29.7992 131.156 29.9761 131.308 30.102C131.503 30.2525 131.747 30.3252 131.993 30.306H132.271L132.638 30.2488V29.0167C132.534 29.0115 132.435 28.9679 132.36 28.8943C132.293 28.7965 132.261 28.6783 132.271 28.5597V26.7401C132.291 26.4091 132.239 26.0776 132.117 25.769C131.996 25.4603 131.809 25.1818 131.569 24.9531C131.01 24.5102 130.306 24.2894 129.594 24.3329C129.155 24.3317 128.718 24.395 128.297 24.5206C127.873 24.66 127.47 24.8548 127.097 25.0999L127.579 26.0954C127.869 25.8955 128.181 25.7285 128.509 25.5977C128.803 25.4836 129.116 25.4255 129.431 25.4263C129.789 25.399 130.144 25.5067 130.427 25.7282C130.542 25.8378 130.631 25.9714 130.689 26.1194C130.747 26.2675 130.772 26.4264 130.761 26.585V26.8951C130.546 26.8082 130.322 26.7479 130.092 26.7156C129.84 26.681 129.587 26.6619 129.333 26.6585C128.881 26.6513 128.432 26.7317 128.011 26.8951C127.656 27.0278 127.346 27.2567 127.114 27.5561ZM130.68 28.5924C130.619 28.6852 130.551 28.7726 130.476 28.8535L130.492 28.8127C130.331 28.9585 130.146 29.0745 129.945 29.1554C129.731 29.2361 129.505 29.2776 129.276 29.2778C129.081 29.2834 128.888 29.2414 128.713 29.1554C128.565 29.0834 128.438 28.9737 128.346 28.8372C128.29 28.75 128.252 28.6523 128.235 28.5502C128.218 28.4481 128.222 28.3435 128.246 28.2429C128.271 28.1422 128.315 28.0475 128.377 27.9646C128.439 27.8816 128.517 27.812 128.607 27.7601C128.897 27.5865 129.232 27.5014 129.57 27.5153C129.772 27.5152 129.975 27.5343 130.174 27.5724C130.374 27.6122 130.571 27.6695 130.761 27.7437V28.3476C130.754 28.4346 130.726 28.5186 130.68 28.5924ZM133.691 30.2489V24.39H135.2V28.2415L137.836 24.3819H139.215V30.2489H137.697V26.4871L135.078 30.2489H133.691ZM136.473 23.7699C135.975 23.8018 135.485 23.6411 135.102 23.3211C134.94 23.1795 134.811 23.0036 134.725 22.806C134.639 22.6084 134.597 22.3941 134.604 22.1787H135.543C135.541 22.2832 135.56 22.387 135.599 22.4838C135.638 22.5806 135.697 22.6684 135.771 22.7417C135.868 22.8241 135.979 22.8867 136.099 22.9259C136.22 22.9651 136.347 22.9801 136.473 22.9702C136.595 22.9816 136.718 22.968 136.835 22.9301C136.951 22.8922 137.058 22.8309 137.15 22.7499C137.301 22.5955 137.393 22.3936 137.411 22.1787H138.35C138.355 22.3939 138.313 22.6076 138.227 22.805C138.141 23.0023 138.013 23.1784 137.852 23.3211C137.466 23.6402 136.973 23.8006 136.473 23.7699ZM140.618 24.3818V30.2488H142.136V27.8743H144.535V30.2488H146.045V24.3818H144.535V26.6095H142.136V24.3818H140.618Z" fill="white"/>
<path d="M150.59 25.2305C151.433 25.2305 152.116 24.5474 152.116 23.7046C152.116 22.8619 151.433 22.1787 150.59 22.1787C149.747 22.1787 149.064 22.8619 149.064 23.7046C149.064 24.5474 149.747 25.2305 150.59 25.2305Z" fill="#6BFFE0"/>
</g>
<defs>
<linearGradient id="paint0_linear_2889_44332" x1="240.798" y1="19.9918" x2="76.3017" y2="19.9918" gradientUnits="userSpaceOnUse">
<stop stop-color="#6BFFE0"/>
<stop offset="1" stop-color="#38B7FF"/>
</linearGradient>
<clipPath id="clip0_2889_44332">
<rect width="299.502" height="40" fill="white" transform="translate(0.748901)"/>
</clipPath>
</defs>
</svg>
